<svg xmlns="http://www.w3.org/2000/svg" xmlns:xlink="http://www.w3.org/1999/xlink" width="500" zoomAndPan="magnify" viewBox="0 0 375 374.999991" height="500" preserveAspectRatio="xMidYMid meet" version="1.0"><path fill="#242424" d="M 130.726562 307.585938 L 123.992188 316.007812 C 118.839844 322.421875 113.367188 327.808594 107.574219 331.636719 C 91.882812 342.003906 74.351562 341.382812 55.261719 320.5625 C 37.796875 301.472656 38.117188 284.5625 48.3125 269.726562 C 49.039062 268.636719 49.832031 267.566406 50.6875 266.519531 L 63.8125 250.164062 C 55.304688 251.296875 47.308594 251.425781 40.191406 250.082031 C 22.488281 246.746094 10.304688 235.007812 9.214844 209.140625 C 8.574219 194.15625 11.671875 183.511719 17.488281 176.261719 L 45.941406 140.796875 C 38.78125 127.929688 39.164062 113.5625 51.90625 97.679688 L 82.753906 59.199219 C 83.78125 57.917969 84.890625 56.613281 86.109375 55.308594 C 105.714844 33.886719 123.671875 33.824219 139.640625 45.066406 C 141.027344 46.050781 142.417969 47.121094 143.765625 48.273438 L 167.816406 18.261719 C 167.964844 18.089844 168.09375 17.941406 168.242188 17.769531 C 168.285156 17.703125 168.328125 17.660156 168.371094 17.597656 C 168.691406 17.214844 169.054688 16.828125 169.398438 16.441406 C 169.417969 16.441406 169.441406 16.421875 169.460938 16.402344 C 176.621094 8.832031 188.125 4.621094 205.398438 5.371094 C 231.070312 6.460938 242.851562 18.496094 246.269531 36.023438 C 248.003906 44.941406 247.425781 55.242188 245.394531 66.1875 L 250.398438 59.945312 C 250.484375 59.820312 250.589844 59.710938 250.695312 59.582031 C 250.71875 59.539062 250.738281 59.519531 250.761719 59.476562 C 255.59375 53.554688 260.722656 48.574219 266.175781 44.960938 C 280.925781 35.214844 297.664062 35.148438 316.433594 52.441406 C 336.507812 70.933594 337.683594 87.953125 328.320312 103.238281 C 327.207031 105.054688 325.945312 106.847656 324.535156 108.625 L 310.789062 125.746094 C 320.6875 124.421875 329.921875 124.402344 337.875 126.324219 C 355.277344 130.558594 366.457031 143.425781 365.300781 170.683594 C 364.769531 183.425781 361.519531 192.746094 356.257812 199.328125 C 346.9375 210.9375 337.640625 222.546875 328.320312 234.152344 C 335.308594 245.570312 336.421875 257.945312 328.167969 271.203125 C 328.125 271.242188 328.082031 271.308594 328.0625 271.351562 C 327.761719 271.820312 327.464844 272.292969 327.144531 272.761719 C 327.058594 272.890625 326.972656 272.996094 326.90625 273.105469 C 326.609375 273.53125 326.308594 273.960938 326.011719 274.367188 C 325.925781 274.492188 325.816406 274.644531 325.710938 274.769531 C 325.410156 275.199219 325.089844 275.605469 324.75 276.03125 C 324.664062 276.160156 324.554688 276.289062 324.472656 276.394531 C 324.429688 276.4375 324.40625 276.480469 324.386719 276.523438 L 293.539062 314.984375 C 291.3125 317.742188 288.664062 320.5625 285.585938 323.40625 C 267.308594 340.25 250.910156 340.613281 236.417969 331.570312 C 234.386719 330.3125 232.398438 328.835938 230.453125 327.210938 L 208.046875 355.152344 C 201.527344 363.273438 190.839844 368.382812 174.550781 369.070312 C 146.523438 370.246094 133.695312 358.421875 129.871094 340.207031 C 127.859375 330.71875 128.480469 319.515625 130.726562 307.585938 " fill-opacity="1" fill-rule="evenodd"/><path fill="#ffffff" d="M 173.136719 240.460938 C 152.421875 282.339844 123.882812 317.847656 88.847656 279.582031 C 56.800781 244.628906 89.660156 218.121094 129.464844 198.964844 C 87.753906 213.480469 45.769531 217.929688 43.761719 170.554688 C 41.621094 119.996094 84.675781 123.480469 127.839844 137.65625 C 88.78125 118.542969 57.226562 92.3125 88.847656 57.808594 C 124.824219 18.496094 153.984375 57.039062 174.828125 100.394531 C 158.75 54.921875 151.867188 6.800781 205.246094 9.066406 C 252.34375 11.054688 248.257812 52.507812 233.9375 93.980469 C 253.15625 54.945312 279.492188 23.476562 313.910156 55.179688 C 350.785156 89.148438 318.785156 116.855469 278.722656 137.269531 C 321.476562 123.4375 363.71875 120.445312 361.605469 170.554688 C 359.617188 217.285156 318.742188 213.609375 277.609375 199.542969 C 318.1875 220 351.128906 247.921875 313.933594 282.210938 C 280.367188 313.125 254.460938 283.941406 235.367188 246.273438 C 248.472656 286.25 250.695312 324.964844 205.246094 326.890625 C 153.769531 329.070312 158.324219 284.414062 173.136719 240.460938 " fill-opacity="1" fill-rule="evenodd"/><path fill="#242424" d="M 202.683594 90.539062 C 245.460938 90.539062 280.132812 125.214844 280.132812 167.988281 C 280.132812 210.765625 245.460938 245.441406 202.683594 245.441406 C 159.90625 245.441406 125.230469 210.765625 125.230469 167.988281 C 125.230469 125.214844 159.90625 90.539062 202.683594 90.539062 " fill-opacity="1" fill-rule="evenodd"/><path fill="#f2c32e" d="M 202.683594 94.257812 C 243.40625 94.257812 276.414062 127.265625 276.414062 167.988281 C 276.414062 208.691406 243.40625 241.722656 202.683594 241.722656 C 161.957031 241.722656 128.949219 208.691406 128.949219 167.988281 C 128.949219 127.265625 161.957031 94.257812 202.683594 94.257812 " fill-opacity="1" fill-rule="evenodd"/><path fill="#242424" d="M 254.074219 180.625 C 251.273438 192.105469 244.710938 202.109375 235.796875 209.269531 C 226.730469 216.539062 215.210938 220.898438 202.683594 220.898438 C 190.15625 220.898438 178.632812 216.539062 169.566406 209.269531 C 160.652344 202.109375 154.113281 192.105469 151.289062 180.625 C 150.414062 180.410156 149.601562 180.003906 148.894531 179.449219 C 147.828125 178.570312 147.035156 177.351562 146.738281 175.964844 C 146.523438 174.980469 147.144531 174.019531 148.125 173.804688 C 149.109375 173.589844 150.070312 174.210938 150.285156 175.195312 C 150.414062 175.769531 150.734375 176.261719 151.160156 176.625 C 151.609375 176.96875 152.167969 177.183594 152.765625 177.183594 C 153.386719 177.183594 153.917969 176.96875 154.367188 176.625 C 154.816406 176.261719 155.136719 175.769531 155.246094 175.195312 C 155.457031 174.210938 156.421875 173.589844 157.402344 173.804688 C 158.386719 174.019531 159.007812 174.980469 158.792969 175.964844 C 158.496094 177.351562 157.703125 178.570312 156.632812 179.449219 C 156.121094 179.855469 155.566406 180.175781 154.96875 180.410156 C 157.660156 190.820312 163.6875 199.90625 171.835938 206.449219 C 180.277344 213.226562 191.011719 217.285156 202.683594 217.285156 C 214.375 217.285156 225.085938 213.226562 233.53125 206.449219 C 241.675781 199.90625 247.703125 190.820312 250.398438 180.410156 C 249.796875 180.175781 249.242188 179.855469 248.75 179.449219 C 247.660156 178.570312 246.890625 177.351562 246.570312 175.964844 C 246.355469 174.980469 246.976562 174.019531 247.960938 173.804688 C 248.945312 173.589844 249.90625 174.210938 250.121094 175.195312 C 250.246094 175.769531 250.566406 176.261719 251.015625 176.625 C 251.445312 176.96875 252 177.183594 252.597656 177.183594 C 253.21875 177.183594 253.773438 176.96875 254.203125 176.625 C 254.652344 176.261719 254.972656 175.769531 255.101562 175.195312 C 255.292969 174.210938 256.253906 173.589844 257.238281 173.804688 C 258.222656 174.019531 258.839844 174.980469 258.628906 175.964844 C 258.328125 177.351562 257.539062 178.570312 256.46875 179.449219 C 255.785156 180.003906 254.972656 180.410156 254.074219 180.625 " fill-opacity="1" fill-rule="nonzero"/><path fill="#242424" d="M 197.574219 144.429688 C 197.742188 143.0625 196.78125 141.78125 195.390625 141.609375 C 194.023438 141.417969 192.742188 142.378906 192.550781 143.769531 C 192.101562 147.1875 190.390625 150.226562 187.890625 152.40625 C 185.453125 154.566406 182.246094 155.867188 178.738281 155.867188 C 175.253906 155.867188 172.046875 154.566406 169.589844 152.40625 C 167.109375 150.226562 165.398438 147.1875 164.929688 143.769531 C 164.757812 142.402344 163.496094 141.417969 162.105469 141.609375 C 160.71875 141.78125 159.753906 143.042969 159.925781 144.429688 C 160.546875 149.09375 162.898438 153.238281 166.277344 156.210938 C 169.632812 159.140625 173.992188 160.914062 178.738281 160.914062 C 183.507812 160.914062 187.867188 159.140625 191.222656 156.210938 C 194.601562 153.238281 196.933594 149.09375 197.574219 144.429688 Z M 245.4375 144.429688 C 245.628906 143.0625 244.648438 141.78125 243.277344 141.609375 C 241.890625 141.417969 240.628906 142.378906 240.433594 143.769531 C 239.988281 147.1875 238.253906 150.226562 235.773438 152.40625 C 233.316406 154.566406 230.109375 155.867188 226.625 155.867188 C 223.121094 155.867188 219.914062 154.566406 217.476562 152.40625 C 214.972656 150.226562 213.265625 147.1875 212.816406 143.769531 C 212.621094 142.402344 211.363281 141.417969 209.972656 141.609375 C 208.605469 141.78125 207.621094 143.042969 207.8125 144.429688 C 208.433594 149.09375 210.761719 153.238281 214.140625 156.210938 C 217.496094 159.140625 221.878906 160.914062 226.625 160.914062 C 231.371094 160.914062 235.730469 159.140625 239.089844 156.210938 C 242.464844 153.238281 244.816406 149.09375 245.4375 144.429688 " fill-opacity="1" fill-rule="nonzero"/></svg>