<svg xmlns="http://www.w3.org/2000/svg" xmlns:xlink="http://www.w3.org/1999/xlink" width="500" zoomAndPan="magnify" viewBox="0 0 375 374.999991" height="500" preserveAspectRatio="xMidYMid meet" version="1.0"><path fill="#f9f9f9" d="M 141.207031 209.132812 C 130.359375 217.390625 113.429688 225.582031 94.878906 230.839844 L 94.871094 230.839844 C 94.871094 230.839844 94.855469 230.839844 94.855469 230.839844 C 94.847656 230.839844 94.847656 230.847656 94.839844 230.847656 C 59.757812 240.773438 18.917969 240.183594 2.46875 209.648438 C 9.558594 176.945312 49.882812 166.824219 87.089844 168.121094 C 87.097656 168.121094 87.097656 168.121094 87.097656 168.121094 C 106.394531 168.789062 124.835938 172.539062 137.386719 177.796875 C 137.625 177.894531 137.871094 178.003906 138.101562 178.109375 L 138.109375 178.109375 C 136.066406 188.828125 137.585938 199.414062 141.859375 208.628906 L 141.84375 208.628906 C 141.644531 208.804688 141.429688 208.964844 141.207031 209.121094 Z M 141.207031 209.132812 " fill-opacity="1" fill-rule="nonzero"/><path fill="#f9f9f9" d="M 177.742188 236.867188 C 183.066406 237.917969 188.359375 238.089844 193.46875 237.480469 C 193.554688 237.71875 193.652344 237.972656 193.722656 238.210938 C 198.234375 251.09375 200.796875 269.742188 200.058594 289.023438 C 198.664062 325.457031 185.480469 364.136719 151.34375 370.34375 C 122.449219 353.503906 125.265625 312.023438 138 277.039062 C 144.597656 258.902344 153.859375 242.515625 162.742188 232.203125 L 162.75 232.203125 C 162.917969 231.996094 163.082031 231.8125 163.257812 231.621094 L 163.265625 231.621094 C 167.683594 234.039062 172.539062 235.839844 177.742188 236.867188 Z M 177.742188 236.867188 " fill-opacity="1" fill-rule="nonzero"/><path fill="#f9f9f9" d="M 287.925781 206.957031 C 322.140625 219.546875 354.816406 244.042969 350.1875 278.417969 C 325.226562 300.699219 286.636719 285.179688 257.304688 262.269531 L 257.304688 262.253906 C 242.09375 250.371094 229.378906 236.492188 222.324219 224.871094 C 222.183594 224.640625 222.046875 224.417969 221.921875 224.203125 C 229.328125 217.257812 234.710938 208.015625 236.828125 197.296875 C 237.082031 197.289062 237.351562 197.28125 237.613281 197.273438 C 251.261719 196.96875 269.789062 200.296875 287.902344 206.949219 L 287.910156 206.949219 C 287.910156 206.949219 287.917969 206.957031 287.925781 206.957031 Z M 287.925781 206.957031 " fill-opacity="1" fill-rule="nonzero"/><path fill="#f9f9f9" d="M 324.195312 60.898438 C 337.683594 91.53125 311 123.425781 280.121094 144.238281 C 264.132812 155.03125 247.019531 162.828125 233.792969 165.949219 C 233.523438 166.011719 233.261719 166.066406 233 166.125 L 232.988281 166.125 C 228.566406 156.734375 221.285156 148.796875 212.019531 143.625 C 212.089844 143.386719 212.164062 143.148438 212.25 142.886719 C 216.167969 129.808594 225.0625 113.214844 237 98.039062 C 259.546875 69.40625 292.941406 45.871094 324.195312 60.898438 Z M 324.195312 60.898438 " fill-opacity="1" fill-rule="nonzero"/><path fill="#f9f9f9" d="M 174.949219 86.101562 C 174.949219 86.101562 174.957031 86.117188 174.949219 86.125 C 174.949219 86.125 174.949219 86.132812 174.949219 86.140625 C 180.265625 104.652344 182.390625 123.308594 181.269531 136.851562 L 181.269531 136.867188 C 181.246094 137.132812 181.222656 137.386719 181.195312 137.648438 C 170.675781 138.96875 160.941406 143.601562 153.320312 150.652344 C 153.097656 150.5 152.871094 150.351562 152.648438 150.191406 C 141.4375 142.40625 128.402344 128.832031 117.671875 112.808594 C 97.394531 82.503906 85.339844 43.484375 109.292969 18.390625 C 142.597656 15.027344 164.699219 50.289062 174.949219 86.101562 Z M 174.949219 86.101562 " fill-opacity="1" fill-rule="nonzero"/><path fill="#edefee" d="M 117.671875 112.808594 C 128.402344 128.832031 141.4375 142.40625 152.648438 150.191406 C 152.871094 150.351562 153.097656 150.5 153.320312 150.652344 C 145.789062 157.625 140.316406 166.953125 138.171875 177.78125 C 138.148438 177.894531 138.132812 178.003906 138.109375 178.117188 L 138.101562 178.117188 C 137.871094 178.011719 137.625 177.902344 137.386719 177.808594 C 124.835938 172.546875 106.394531 168.796875 87.097656 168.128906 C 87.097656 168.128906 87.097656 168.128906 87.089844 168.128906 C 52.867188 155.546875 20.183594 131.050781 24.8125 96.671875 C 49.765625 74.394531 88.339844 89.898438 117.671875 112.816406 Z M 117.671875 112.808594 " fill-opacity="1" fill-rule="nonzero"/><path fill="#edefee" d="M 141.859375 208.636719 C 146.316406 218.257812 153.765625 226.394531 163.265625 231.613281 L 163.257812 231.613281 C 163.082031 231.8125 162.917969 231.996094 162.75 232.195312 L 162.742188 232.195312 C 153.859375 242.515625 144.597656 258.902344 138 277.039062 C 115.453125 305.691406 82.058594 329.214844 50.789062 314.183594 C 37.316406 283.558594 63.992188 251.667969 94.839844 230.847656 C 94.847656 230.847656 94.863281 230.847656 94.871094 230.839844 L 94.878906 230.839844 C 113.429688 225.582031 130.359375 217.390625 141.207031 209.132812 C 141.429688 208.972656 141.644531 208.8125 141.84375 208.644531 L 141.859375 208.644531 Z M 141.859375 208.636719 " fill-opacity="1" fill-rule="nonzero"/><path fill="#edefee" d="M 222.324219 224.871094 C 229.378906 236.492188 242.09375 250.371094 257.296875 262.253906 L 257.296875 262.269531 C 277.605469 292.574219 289.660156 331.59375 265.691406 356.6875 C 232.402344 360.039062 210.308594 324.8125 200.058594 289.023438 C 200.796875 269.742188 198.234375 251.09375 193.722656 238.210938 C 193.652344 237.972656 193.554688 237.71875 193.46875 237.488281 C 204.230469 236.199219 214.183594 231.453125 221.921875 224.203125 C 222.046875 224.417969 222.183594 224.640625 222.324219 224.871094 Z M 222.324219 224.871094 " fill-opacity="1" fill-rule="nonzero"/><path fill="#edefee" d="M 280.121094 144.238281 C 315.207031 134.304688 356.074219 134.886719 372.53125 165.429688 C 365.441406 198.125 325.125 208.253906 287.925781 206.957031 L 287.902344 206.957031 C 269.789062 200.296875 251.261719 196.96875 237.613281 197.273438 C 237.351562 197.28125 237.082031 197.289062 236.828125 197.296875 C 238.992188 186.339844 237.421875 175.507812 232.988281 166.125 L 233 166.125 C 233.261719 166.066406 233.523438 166.011719 233.792969 165.949219 C 247.019531 162.828125 264.132812 155.03125 280.121094 144.238281 Z M 280.121094 144.238281 " fill-opacity="1" fill-rule="nonzero"/><path fill="#edefee" d="M 174.941406 86.125 C 174.941406 86.125 174.941406 86.101562 174.941406 86.101562 C 176.320312 49.652344 189.503906 10.949219 223.648438 4.734375 C 252.542969 21.589844 249.726562 63.054688 236.992188 98.039062 C 225.054688 113.214844 216.160156 129.808594 212.242188 142.886719 C 212.15625 143.148438 212.082031 143.386719 212.011719 143.625 C 207.523438 141.117188 202.566406 139.265625 197.25 138.214844 C 191.8125 137.140625 186.402344 136.980469 181.1875 137.648438 C 181.210938 137.386719 181.238281 137.132812 181.253906 136.867188 L 181.253906 136.851562 C 182.382812 123.308594 180.257812 104.652344 174.941406 86.140625 C 174.941406 86.140625 174.941406 86.136719 174.941406 86.125 Z M 174.941406 86.125 " fill-opacity="1" fill-rule="nonzero"/><path fill="#f5ca5f" d="M 181.195312 137.648438 C 186.410156 136.980469 191.820312 137.140625 197.257812 138.214844 C 202.574219 139.265625 207.53125 141.117188 212.019531 143.625 C 221.285156 148.796875 228.566406 156.734375 232.988281 166.125 C 237.421875 175.507812 238.992188 186.339844 236.828125 197.296875 C 234.710938 208.015625 229.328125 217.257812 221.921875 224.203125 C 214.183594 231.453125 204.230469 236.199219 193.46875 237.480469 C 188.359375 238.089844 183.066406 237.917969 177.742188 236.867188 C 172.539062 235.839844 167.683594 234.039062 163.265625 231.613281 C 153.765625 226.394531 146.316406 218.257812 141.859375 208.636719 C 137.585938 199.421875 136.066406 188.835938 138.109375 178.117188 C 138.132812 178.003906 138.148438 177.894531 138.171875 177.78125 C 140.316406 166.953125 145.789062 157.625 153.320312 150.652344 C 160.941406 143.601562 170.675781 138.96875 181.195312 137.648438 Z M 181.195312 137.648438 " fill-opacity="1" fill-rule="nonzero"/><path fill="#000000" d="M 374.632812 164.300781 C 366.675781 149.523438 352.898438 140.441406 333.695312 137.296875 C 318.980469 134.894531 303.835938 136.472656 291.363281 139.042969 C 301.648438 131.035156 312.949219 120.332031 320.828125 107.503906 C 331.070312 90.828125 332.941406 74.824219 326.382812 59.933594 C 326.152344 59.410156 325.746094 58.988281 325.226562 58.742188 C 310.105469 51.476562 293.632812 52.222656 276.261719 60.960938 C 262.9375 67.664062 251.613281 77.832031 243.035156 87.230469 C 246.640625 74.722656 249.496094 59.417969 248.316406 44.398438 C 246.796875 24.902344 238.902344 10.863281 224.855469 2.675781 C 224.371094 2.378906 223.789062 2.285156 223.234375 2.386719 C 206.710938 5.394531 193.8125 15.6875 184.890625 32.988281 C 178.0625 46.246094 174.878906 61.128906 173.46875 73.78125 C 169.035156 61.535156 162.351562 47.472656 152.585938 36.011719 C 139.886719 21.105469 125.242188 14.378906 109.054688 16.011719 C 108.488281 16.066406 107.964844 16.332031 107.566406 16.746094 C 95.976562 28.882812 91.59375 44.78125 94.539062 64.007812 C 96.789062 78.75 102.964844 92.667969 109.261719 103.738281 C 98.46875 96.441406 84.796875 88.992188 70.160156 85.464844 C 51.140625 80.890625 35.351562 84.058594 23.222656 94.878906 C 22.800781 95.253906 22.523438 95.78125 22.449219 96.34375 C 20.207031 112.976562 26.007812 128.425781 39.679688 142.25 C 50.167969 152.847656 63.339844 160.472656 74.9375 165.726562 C 61.917969 166.164062 46.484375 168.175781 32.574219 173.929688 C 14.492188 181.402344 3.582031 193.246094 0.136719 209.140625 C 0.015625 209.695312 0.09375 210.277344 0.367188 210.777344 C 8.324219 225.558594 22.101562 234.636719 41.304688 237.78125 C 46.421875 238.617188 51.585938 238.96875 56.679688 238.96875 C 66.230469 238.96875 75.492188 237.71875 83.617188 236.046875 C 73.34375 244.050781 62.042969 254.757812 54.164062 267.585938 C 43.929688 284.257812 42.058594 300.253906 48.601562 315.144531 C 48.832031 315.660156 49.246094 316.082031 49.757812 316.332031 C 56.625 319.632812 63.769531 321.289062 71.148438 321.289062 C 80.03125 321.289062 89.253906 318.902344 98.738281 314.125 C 112.054688 307.425781 123.386719 297.253906 131.964844 287.847656 C 128.359375 300.367188 125.503906 315.671875 126.683594 330.679688 C 128.203125 350.1875 136.097656 364.222656 150.144531 372.40625 C 150.507812 372.621094 150.921875 372.730469 151.34375 372.730469 C 151.488281 372.730469 151.632812 372.722656 151.765625 372.691406 C 168.289062 369.691406 181.179688 359.402344 190.101562 342.117188 C 196.9375 328.863281 200.113281 313.984375 201.53125 301.328125 C 205.964844 313.570312 212.648438 327.625 222.421875 339.082031 C 233.875 352.515625 246.910156 359.296875 261.234375 359.296875 C 262.785156 359.296875 264.355469 359.21875 265.929688 359.058594 C 266.496094 359.003906 267.027344 358.75 267.417969 358.335938 C 279.011719 346.199219 283.40625 330.289062 280.460938 311.070312 C 278.203125 296.339844 272.027344 282.429688 265.722656 271.339844 C 276.515625 278.640625 290.1875 286.089844 304.832031 289.613281 C 310.464844 290.976562 315.8125 291.652344 320.875 291.652344 C 332.882812 291.652344 343.238281 287.824219 351.777344 280.199219 C 352.199219 279.824219 352.476562 279.300781 352.550781 278.734375 C 354.792969 262.101562 348.992188 246.65625 335.3125 232.832031 C 324.820312 222.230469 311.652344 214.605469 300.046875 209.355469 C 313.066406 208.917969 328.507812 206.902344 342.425781 201.148438 C 360.507812 193.675781 371.417969 181.832031 374.863281 165.941406 C 374.984375 165.382812 374.90625 164.800781 374.632812 164.300781 Z M 322.363281 62.671875 C 337.5 99.050781 292.902344 132.746094 278.78125 142.265625 C 264.019531 152.226562 247.492188 160.050781 234.253906 163.371094 C 229.855469 154.871094 223.183594 147.605469 214.867188 142.535156 C 218.992188 129.460938 227.890625 113.480469 238.871094 99.519531 L 238.886719 99.503906 C 249.136719 86.484375 285.246094 45.664062 322.363281 62.671875 Z M 234.488281 196.835938 C 229.359375 222.738281 204.117188 239.652344 178.203125 234.527344 C 165.652344 232.042969 154.824219 224.824219 147.699219 214.191406 C 140.585938 203.566406 138.03125 190.792969 140.511719 178.246094 C 142.996094 165.695312 150.214844 154.863281 160.847656 147.746094 C 168.828125 142.398438 178.003906 139.628906 187.398438 139.628906 C 190.515625 139.628906 193.660156 139.933594 196.796875 140.554688 C 222.699219 145.679688 239.613281 170.921875 234.488281 196.835938 Z M 223.21875 7.25 C 256.585938 27.640625 240.796875 80.484375 234.875 96.878906 C 223.917969 110.875 214.972656 126.871094 210.601562 140.210938 C 206.601562 138.253906 202.285156 136.773438 197.71875 135.875 C 193.0625 134.949219 188.390625 134.671875 183.785156 134.992188 C 184.578125 121.09375 182.222656 102.957031 177.34375 85.855469 C 178.03125 68.917969 183.394531 15.257812 223.21875 7.25 Z M 110.414062 20.683594 C 149.53125 17.546875 167.820312 69.960938 172.59375 86.5625 C 172.601562 86.601562 172.617188 86.652344 172.625 86.699219 C 172.632812 86.714844 172.632812 86.730469 172.640625 86.753906 C 172.640625 86.761719 172.640625 86.777344 172.648438 86.785156 C 177.558594 103.863281 179.890625 121.976562 178.960938 135.546875 C 171.613281 136.757812 164.554688 139.519531 158.1875 143.777344 C 156.421875 144.960938 154.75 146.25 153.160156 147.613281 C 141.96875 139.621094 129.515625 126.203125 119.65625 111.480469 C 110.445312 97.722656 82.75 50.742188 110.414062 20.683594 Z M 27.066406 97.855469 C 56.757812 72.421875 102.152344 103.769531 115.914062 114.464844 C 125.832031 129.203125 138.308594 142.679688 149.609375 150.945312 C 143.195312 157.558594 138.636719 165.742188 136.382812 174.839844 C 123.417969 169.785156 105.402344 166.417969 87.566406 165.757812 C 71.65625 159.859375 22.386719 138.171875 27.066406 97.855469 Z M 4.996094 209.289062 C 14.109375 171.035156 69.835938 169.910156 86.929688 170.507812 L 87.015625 170.507812 C 104.820312 171.136719 122.78125 174.511719 135.4375 179.597656 C 133.949219 189.273438 135.15625 198.992188 138.898438 207.867188 C 127.867188 216.015625 111.28125 223.710938 94.226562 228.542969 C 78.292969 233.054688 25.039062 244.902344 4.996094 209.289062 Z M 52.628906 312.40625 C 37.628906 276.324219 81.398438 242.859375 95.882812 233.03125 C 112.984375 228.144531 129.648438 220.449219 140.984375 212.257812 C 141.820312 213.828125 142.734375 215.355469 143.738281 216.851562 C 147.953125 223.144531 153.367188 228.34375 159.613281 232.242188 C 150.796875 243.019531 142.035156 259.101562 135.898438 275.855469 C 125.359375 289.160156 89.5 329.3125 52.628906 312.40625 Z M 197.671875 288.9375 C 197.035156 305.484375 191.859375 359.785156 151.78125 367.828125 C 118.175781 347.3125 134.425781 293.847656 140.242188 277.859375 C 146.339844 261.097656 155.117188 245.046875 163.847656 234.613281 C 168.042969 236.714844 172.546875 238.273438 177.28125 239.214844 C 180.71875 239.890625 184.171875 240.230469 187.613281 240.230469 C 189.019531 240.230469 190.421875 240.167969 191.820312 240.058594 C 196.167969 253.085938 198.347656 271.230469 197.671875 288.9375 Z M 264.570312 354.394531 C 225.582031 357.507812 207.292969 305.46875 202.453125 288.714844 C 203.089844 271 200.933594 252.816406 196.644531 239.4375 C 203.765625 238.179688 210.621094 235.449219 216.8125 231.304688 C 218.410156 230.238281 219.929688 229.074219 221.386719 227.855469 C 228.898438 239.554688 241.480469 252.863281 255.519531 263.882812 C 264.917969 278.003906 292.066406 324.527344 264.570312 354.394531 Z M 347.933594 277.222656 C 318.105469 302.777344 272.433594 271.03125 258.886719 260.46875 C 258.847656 260.429688 258.808594 260.398438 258.765625 260.367188 C 244.730469 249.402344 232.203125 236.109375 224.96875 224.578125 C 231.75 217.75 236.5 209.1875 238.746094 199.652344 C 252.480469 199.550781 270.433594 203.074219 287.074219 209.195312 C 302.617188 214.910156 352.644531 236.621094 347.933594 277.222656 Z M 288.355469 204.578125 C 271.683594 198.5 253.707031 194.925781 239.652344 194.878906 C 240.988281 185.414062 239.691406 176.128906 236.292969 167.777344 C 249.757812 164.246094 266.3125 156.382812 281.121094 146.441406 C 297.46875 141.859375 350.105469 130.429688 370.003906 165.789062 C 360.9375 203.832031 305.777344 205.152344 288.355469 204.578125 Z M 288.355469 204.578125 " fill-opacity="1" fill-rule="nonzero"/></svg>